<svg width="198" height="30" viewBox="0 0 198 30" fill="none" xmlns="http://www.w3.org/2000/svg">
<path d="M46 1.5C46 7.46737 44 13.5 41 17.4099C37 21.5 37 24 25.5222 24C14.0444 24 14 22.1151 9.61232 17.4099C5.22463 12.7047 5 7.96737 5 2H9C9 10.5 12.4388 14.5834 12.4388 14.5834C12.4388 14.5834 15.5222 20.0027 25.5222 20.0027C35.5222 20.0027 38 14.5834 38 14.5834C38 14.5834 41.4321 8.5 41.4321 1.5H46Z" fill="white"/>
<path d="M41.4596 9.52731C41.8656 10.8568 42.6895 12.02 43.8091 12.8441C44.9286 13.6682 46.2841 14.1094 47.6742 14.102C49.0643 14.0946 50.415 13.6391 51.5258 12.8032C52.6365 11.9673 53.4481 10.7954 53.84 9.46165C54.2319 8.12787 54.1832 6.70327 53.7012 5.39935C53.2192 4.09543 52.3296 2.9817 51.1643 2.22351C49.9991 1.46533 48.6205 1.10311 47.2331 1.19062C45.8457 1.27814 44.5235 1.81073 43.4628 2.70933L45.6146 5.24924C46.1289 4.81353 46.77 4.5553 47.4427 4.51286C48.1154 4.47043 48.7838 4.64606 49.3488 5.01368C49.9138 5.3813 50.3452 5.92131 50.5789 6.55355C50.8126 7.18578 50.8362 7.87652 50.6462 8.52323C50.4561 9.16994 50.0626 9.73814 49.5241 10.1434C48.9855 10.5488 48.3306 10.7696 47.6566 10.7732C46.9825 10.7768 46.3253 10.5629 45.7825 10.1633C45.2396 9.76371 44.8401 9.19973 44.6433 8.55507L41.4596 9.52731Z" fill="white"/>
<path d="M39 1.59495C39 5.94584 37.525 10.1185 34.8995 13.1951C32.274 16.2716 28.713 18 25 18C21.287 18 17.726 16.2716 15.1005 13.1951C12.475 10.1185 11 5.94584 11 1.59495C11 1.59495 19 5.18358 25 1.59495C31 -1.99369 39 1.59495 39 1.59495Z" fill="#FF912B"/>
<path d="M43.7553 27H7.24468C6.55726 27 6 27.6716 6 28.5C6 29.3284 6.55726 30 7.24468 30H43.7553C44.4427 30 45 29.3284 45 28.5C45 27.6716 44.4427 27 43.7553 27Z" fill="white"/>
<path d="M73.032 24.144C71.768 24.144 70.6 23.936 69.528 23.52C68.456 23.088 67.528 22.488 66.744 21.72C65.96 20.952 65.344 20.048 64.896 19.008C64.464 17.968 64.248 16.832 64.248 15.6C64.248 14.368 64.464 13.232 64.896 12.192C65.344 11.152 65.96 10.248 66.744 9.48C67.544 8.712 68.48 8.12 69.552 7.704C70.624 7.272 71.792 7.056 73.056 7.056C74.272 7.056 75.416 7.264 76.488 7.68C77.56 8.08 78.464 8.688 79.2 9.504L78.072 10.632C77.384 9.928 76.624 9.424 75.792 9.12C74.96 8.8 74.064 8.64 73.104 8.64C72.096 8.64 71.16 8.816 70.296 9.168C69.432 9.504 68.68 9.992 68.04 10.632C67.4 11.256 66.896 11.992 66.528 12.84C66.176 13.672 66 14.592 66 15.6C66 16.608 66.176 17.536 66.528 18.384C66.896 19.216 67.4 19.952 68.04 20.592C68.68 21.216 69.432 21.704 70.296 22.056C71.16 22.392 72.096 22.56 73.104 22.56C74.064 22.56 74.96 22.4 75.792 22.08C76.624 21.76 77.384 21.248 78.072 20.544L79.2 21.672C78.464 22.488 77.56 23.104 76.488 23.52C75.416 23.936 74.264 24.144 73.032 24.144ZM90.3345 24V21.216L90.2625 20.76V16.104C90.2625 15.032 89.9585 14.208 89.3505 13.632C88.7585 13.056 87.8705 12.768 86.6865 12.768C85.8705 12.768 85.0945 12.904 84.3585 13.176C83.6225 13.448 82.9985 13.808 82.4865 14.256L81.7185 12.984C82.3585 12.44 83.1265 12.024 84.0225 11.736C84.9185 11.432 85.8625 11.28 86.8545 11.28C88.4865 11.28 89.7425 11.688 90.6225 12.504C91.5185 13.304 91.9665 14.528 91.9665 16.176V24H90.3345ZM85.9905 24.12C85.0465 24.12 84.2225 23.968 83.5185 23.664C82.8305 23.344 82.3025 22.912 81.9345 22.368C81.5665 21.808 81.3825 21.168 81.3825 20.448C81.3825 19.792 81.5345 19.2 81.8385 18.672C82.1585 18.128 82.6705 17.696 83.3745 17.376C84.0945 17.04 85.0545 16.872 86.2545 16.872H90.5985V18.144H86.3025C85.0865 18.144 84.2385 18.36 83.7585 18.792C83.2945 19.224 83.0625 19.76 83.0625 20.4C83.0625 21.12 83.3425 21.696 83.9025 22.128C84.4625 22.56 85.2465 22.776 86.2545 22.776C87.2145 22.776 88.0385 22.56 88.7265 22.128C89.4305 21.68 89.9425 21.04 90.2625 20.208L90.6465 21.384C90.3265 22.216 89.7665 22.88 88.9665 23.376C88.1825 23.872 87.1905 24.12 85.9905 24.12ZM96.8828 24V9.816C96.8828 8.696 97.2108 7.792 97.8668 7.104C98.5228 6.416 99.4668 6.072 100.699 6.072C101.179 6.072 101.643 6.136 102.091 6.264C102.539 6.392 102.915 6.592 103.219 6.864L102.643 8.136C102.403 7.928 102.123 7.776 101.803 7.68C101.483 7.568 101.139 7.512 100.771 7.512C100.051 7.512 99.4988 7.712 99.1148 8.112C98.7308 8.512 98.5388 9.104 98.5388 9.888V11.808L98.5868 12.6V24H96.8828ZM94.6268 12.816V11.4H102.427V12.816H94.6268ZM109.869 24.12C108.557 24.12 107.405 23.848 106.413 23.304C105.421 22.744 104.645 21.984 104.085 21.024C103.525 20.048 103.245 18.936 103.245 17.688C103.245 16.44 103.509 15.336 104.037 14.376C104.581 13.416 105.317 12.664 106.245 12.12C107.189 11.56 108.245 11.28 109.413 11.28C110.597 11.28 111.645 11.552 112.557 12.096C113.485 12.624 114.213 13.376 114.741 14.352C115.269 15.312 115.533 16.424 115.533 17.688C115.533 17.768 115.525 17.856 115.509 17.952C115.509 18.032 115.509 18.12 115.509 18.216H104.541V16.944H114.597L113.925 17.448C113.925 16.536 113.725 15.728 113.325 15.024C112.941 14.304 112.413 13.744 111.741 13.344C111.069 12.944 110.293 12.744 109.413 12.744C108.549 12.744 107.773 12.944 107.085 13.344C106.397 13.744 105.861 14.304 105.477 15.024C105.093 15.744 104.901 16.568 104.901 17.496V17.76C104.901 18.72 105.109 19.568 105.525 20.304C105.957 21.024 106.549 21.592 107.301 22.008C108.069 22.408 108.941 22.608 109.917 22.608C110.685 22.608 111.397 22.472 112.053 22.2C112.725 21.928 113.301 21.512 113.781 20.952L114.741 22.056C114.181 22.728 113.477 23.24 112.629 23.592C111.797 23.944 110.877 24.12 109.869 24.12Z" fill="#FF902B"/>
<path d="M124.368 24.144C123.12 24.144 121.92 23.944 120.768 23.544C119.632 23.128 118.752 22.6 118.128 21.96L118.824 20.592C119.416 21.168 120.208 21.656 121.2 22.056C122.208 22.44 123.264 22.632 124.368 22.632C125.424 22.632 126.28 22.504 126.936 22.248C127.608 21.976 128.096 21.616 128.4 21.168C128.72 20.72 128.88 20.224 128.88 19.68C128.88 19.024 128.688 18.496 128.304 18.096C127.936 17.696 127.448 17.384 126.84 17.16C126.232 16.92 125.56 16.712 124.824 16.536C124.088 16.36 123.352 16.176 122.616 15.984C121.88 15.776 121.2 15.504 120.576 15.168C119.968 14.832 119.472 14.392 119.088 13.848C118.72 13.288 118.536 12.56 118.536 11.664C118.536 10.832 118.752 10.072 119.184 9.384C119.632 8.68 120.312 8.12 121.224 7.704C122.136 7.272 123.304 7.056 124.728 7.056C125.672 7.056 126.608 7.192 127.536 7.464C128.464 7.72 129.264 8.08 129.936 8.544L129.336 9.96C128.616 9.48 127.848 9.128 127.032 8.904C126.232 8.68 125.456 8.568 124.704 8.568C123.696 8.568 122.864 8.704 122.208 8.976C121.552 9.248 121.064 9.616 120.744 10.08C120.44 10.528 120.288 11.04 120.288 11.616C120.288 12.272 120.472 12.8 120.84 13.2C121.224 13.6 121.72 13.912 122.328 14.136C122.952 14.36 123.632 14.56 124.368 14.736C125.104 14.912 125.832 15.104 126.552 15.312C127.288 15.52 127.96 15.792 128.568 16.128C129.192 16.448 129.688 16.88 130.056 17.424C130.44 17.968 130.632 18.68 130.632 19.56C130.632 20.376 130.408 21.136 129.96 21.84C129.512 22.528 128.824 23.088 127.896 23.52C126.984 23.936 125.808 24.144 124.368 24.144ZM138.126 24.12C136.942 24.12 136.03 23.8 135.39 23.16C134.75 22.52 134.43 21.616 134.43 20.448V8.616H136.134V20.352C136.134 21.088 136.318 21.656 136.686 22.056C137.07 22.456 137.614 22.656 138.318 22.656C139.07 22.656 139.694 22.44 140.19 22.008L140.79 23.232C140.454 23.536 140.046 23.76 139.566 23.904C139.102 24.048 138.622 24.12 138.126 24.12ZM132.174 12.816V11.4H139.974V12.816H132.174ZM143.892 24V11.4H145.524V14.832L145.356 14.232C145.708 13.272 146.3 12.544 147.132 12.048C147.964 11.536 148.996 11.28 150.228 11.28V12.936C150.164 12.936 150.1 12.936 150.036 12.936C149.972 12.92 149.908 12.912 149.844 12.912C148.516 12.912 147.476 13.32 146.724 14.136C145.972 14.936 145.596 16.08 145.596 17.568V24H143.892ZM158.572 24.12C157.26 24.12 156.108 23.848 155.116 23.304C154.124 22.744 153.348 21.984 152.788 21.024C152.228 20.048 151.948 18.936 151.948 17.688C151.948 16.44 152.212 15.336 152.74 14.376C153.284 13.416 154.02 12.664 154.948 12.12C155.892 11.56 156.948 11.28 158.116 11.28C159.3 11.28 160.348 11.552 161.26 12.096C162.188 12.624 162.916 13.376 163.444 14.352C163.972 15.312 164.236 16.424 164.236 17.688C164.236 17.768 164.228 17.856 164.212 17.952C164.212 18.032 164.212 18.12 164.212 18.216H153.244V16.944H163.3L162.628 17.448C162.628 16.536 162.428 15.728 162.028 15.024C161.644 14.304 161.116 13.744 160.444 13.344C159.772 12.944 158.996 12.744 158.116 12.744C157.252 12.744 156.476 12.944 155.788 13.344C155.1 13.744 154.564 14.304 154.18 15.024C153.796 15.744 153.604 16.568 153.604 17.496V17.76C153.604 18.72 153.812 19.568 154.228 20.304C154.66 21.024 155.252 21.592 156.004 22.008C156.772 22.408 157.644 22.608 158.62 22.608C159.388 22.608 160.1 22.472 160.756 22.2C161.428 21.928 162.004 21.512 162.484 20.952L163.444 22.056C162.884 22.728 162.18 23.24 161.332 23.592C160.5 23.944 159.58 24.12 158.572 24.12ZM173.056 24.12C171.744 24.12 170.592 23.848 169.6 23.304C168.608 22.744 167.832 21.984 167.272 21.024C166.712 20.048 166.432 18.936 166.432 17.688C166.432 16.44 166.696 15.336 167.224 14.376C167.768 13.416 168.504 12.664 169.432 12.12C170.376 11.56 171.432 11.28 172.6 11.28C173.784 11.28 174.832 11.552 175.744 12.096C176.672 12.624 177.4 13.376 177.928 14.352C178.456 15.312 178.72 16.424 178.72 17.688C178.72 17.768 178.712 17.856 178.696 17.952C178.696 18.032 178.696 18.12 178.696 18.216H167.728V16.944H177.784L177.112 17.448C177.112 16.536 176.912 15.728 176.512 15.024C176.128 14.304 175.6 13.744 174.928 13.344C174.256 12.944 173.48 12.744 172.6 12.744C171.736 12.744 170.96 12.944 170.272 13.344C169.584 13.744 169.048 14.304 168.664 15.024C168.28 15.744 168.088 16.568 168.088 17.496V17.76C168.088 18.72 168.296 19.568 168.712 20.304C169.144 21.024 169.736 21.592 170.488 22.008C171.256 22.408 172.128 22.608 173.104 22.608C173.872 22.608 174.584 22.472 175.24 22.2C175.912 21.928 176.488 21.512 176.968 20.952L177.928 22.056C177.368 22.728 176.664 23.24 175.816 23.592C174.984 23.944 174.064 24.12 173.056 24.12ZM186.173 24.12C184.989 24.12 184.077 23.8 183.437 23.16C182.797 22.52 182.477 21.616 182.477 20.448V8.616H184.181V20.352C184.181 21.088 184.365 21.656 184.733 22.056C185.117 22.456 185.661 22.656 186.365 22.656C187.117 22.656 187.741 22.44 188.237 22.008L188.837 23.232C188.501 23.536 188.093 23.76 187.613 23.904C187.149 24.048 186.669 24.12 186.173 24.12ZM180.221 12.816V11.4H188.021V12.816H180.221Z" fill="white"/>
</svg>
